<?xml version="1.0" encoding="UTF-8"?><svg id="icons" xmlns="http://www.w3.org/2000/svg" viewBox="0 0 1080 1080"><defs><style>.cls-1{fill:#e30613;}</style></defs><path class="cls-1" d="M745.21,893.35l-236.61-395.05v-103.04h219.52l-49.88-89.09,57.75-87.04H478.61V498.4l-200.03,394.96h466.64ZM508.61,249.15h176.43l-40.61,56.16,35.65,59.97h-171.47v-116.13Zm-168.21,609.21l154.07-318.35c.26-.01,.52-.02,.78-.05l182.23,318.4H340.39Z"/><polyline class="cls-1" points="611.43 699.15 685.03 584.21 914.17 893.35 140.31 893.35 303.58 618.23 395.43 699.15 375.6 730.92 308.2 665.21 194.73 858.35 846.13 858.35 685.03 650.54 635.24 724.81"/></svg>