<?xml version="1.0" encoding="UTF-8"?><svg id="icons" xmlns="http://www.w3.org/2000/svg" viewBox="0 0 1080 1080"><defs><style>.cls-1{fill:#e30613;}</style></defs><path class="cls-1" d="M313.3,379.14c-78.97,113.45-62.79,267.06,37.12,361.2,100.63,94.82,254.91,102.26,363.62,17.02,110.48-86.61,126.02-226.11,88.42-316.46-21.7,22.59-50.34,15.16-77.03,17.12,45.16,109.9-12.46,210.25-79.9,249.89-76.54,44.99-172.97,35.71-237.92-24.2-64.92-59.88-82.53-155.56-42.86-234.95,19.55-39.12,49.01-68.87,88.25-88.31,55.17-27.32,111.58-28.16,169.4-5.09,1.63-27.4-5.34-55.79,17.17-77.56-104.93-41.79-246.71-12.98-326.27,101.31Z"/><path class="cls-1" d="M598.44,398.08c1.99-1.98,4.62-3.33,8.36-5.95-67.92-29.96-152.17-8.83-196,57.45-43.27,65.43-32.13,153.15,25.96,205.13,59.23,53,147.17,54.86,208.1,4.2,61.64-51.25,68.37-133.25,42.84-185.04-2.06,3.16-3.25,5.91-5.23,7.9-31.92,32.03-63.98,63.92-95.9,95.95-15.58,15.63-34.21,22.21-55.8,17.8-22.6-4.62-38.06-18.59-44.68-40.61-6.8-22.57-1.46-43,15.29-59.85,32.24-32.45,64.65-64.71,97.07-96.97Z"/><path class="cls-1" d="M670.2,302.72c-5.7,5.66-8.26,12.03-8.15,20.06,.26,19.37-.15,38.74,.22,58.11,.12,6.4-1.63,10.95-6.29,15.55-40.96,40.53-81.64,81.34-122.4,122.07-12.28,12.27-13.78,23.69-4.37,32.89,9.18,8.98,20.47,7.42,32.4-4.49,41.14-41.08,82.31-82.13,123.32-123.34,3.74-3.75,7.39-5.51,12.79-5.42,19.38,.32,38.78-.18,58.16,.26,9.49,.21,16.75-2.88,23.41-9.6,36.2-36.51,72.6-72.84,109.1-109.05,7.87-7.8,14.97-15.63,10.21-27.65-4.84-12.22-15.49-12.65-26.56-12.46-16.73,.28-33.47,.07-51.23,.07,0-19.46-.17-37.52,.07-55.57,.13-9.88-2.48-18.06-12.24-22.03-9.61-3.91-17.38-.4-24.4,6.65-37.93,38.08-75.95,76.07-114.06,113.96Z"/><path class="cls-1" d="M830.89,422.83c14.77,36.46,22.92,76.28,22.92,117.98,0,173.84-141.43,315.26-315.26,315.26s-315.26-141.43-315.26-315.26S364.71,225.55,538.55,225.55c44.2,0,86.29,9.16,124.51,25.65l30.18-34.21c-47.69-22.82-100.26-34.88-154.69-34.88-95.81,0-185.89,37.31-253.64,105.06-67.75,67.75-105.06,157.83-105.06,253.64s37.31,185.89,105.06,253.64c67.75,67.75,157.83,105.06,253.64,105.06s185.89-37.31,253.64-105.06c67.75-67.75,105.06-157.83,105.06-253.64,0-49.54-10-97.55-29.01-141.73l-37.36,23.75Z"/></svg>