<?xml version="1.0" encoding="UTF-8"?><svg id="icons" xmlns="http://www.w3.org/2000/svg" viewBox="0 0 1080 1080"><defs><style>.cls-1{fill:#e30613;}</style></defs><path class="cls-1" d="M507.11,752.11c-42.63,0-73.08,24.73-73.08,59.92,0,33.29,29.23,58.97,71.87,58.97,45.07,0,73.09-25.68,73.09-58.97,0-35.2-29.23-59.92-71.87-59.92Z"/><path class="cls-1" d="M525.38,209c-64.56,0-133.99,15.22-174.19,38.05l29.23,59.92c30.45-18.08,79.18-29.49,123.03-29.49,76.74,.95,115.72,33.29,115.72,81.8,0,42.8-30.45,79.9-85.27,130.31-60.9,57.07-82.83,113.18-75.52,164.54l2.44,24.73h95.01l-1.22-24.73c-3.65-48.51,15.84-90.36,69.43-139.82,58.47-54.21,104.76-100.82,104.76-165.5,0-72.28-63.34-139.82-203.42-139.82Z"/></svg>