<?xml version="1.0" encoding="UTF-8"?><svg id="Capa_1" xmlns="http://www.w3.org/2000/svg" viewBox="0 0 705.14 878.26"><defs><style>.cls-1{fill:#282828;}.cls-2{fill:#cadcd0;}</style></defs><g><g><path class="cls-1" d="M135.48,764.56h-25.85v20.79h23.83v9.7h-23.83v28.94h-11.48v-69.17h37.33v9.74Z"/><path class="cls-1" d="M164.39,823.98h-11.62v-69.17h11.62v69.17Z"/><path class="cls-1" d="M180.61,819.01l5.11-8.83c3.12,1.93,6.03,3.29,8.73,4.08,2.7,.79,5.72,1.18,9.07,1.18,3.99,0,7.13-.86,9.43-2.58,2.3-1.72,3.45-4.19,3.45-7.4,0-2.93-.96-5.23-2.87-6.92-1.91-1.69-5.15-3.24-9.72-4.65-7.04-2.09-12.22-4.68-15.53-7.77-3.31-3.09-4.97-7.27-4.97-12.54,0-5.72,2.14-10.47,6.42-14.25,4.28-3.78,10.08-5.67,17.41-5.67,3.21,0,6.38,.35,9.5,1.06,3.12,.71,6.21,1.8,9.26,3.28l-4.29,9.17c-2.67-1.38-5.22-2.36-7.65-2.94-2.43-.58-4.9-.87-7.4-.87-3.67,0-6.55,.8-8.66,2.41-2.11,1.61-3.16,3.88-3.16,6.8,0,2.6,.96,4.65,2.89,6.15s5.24,2.97,9.94,4.41c7.2,2.15,12.39,4.84,15.56,8.05,3.17,3.22,4.75,7.64,4.75,13.26,0,6.05-2.15,11.01-6.46,14.88-4.31,3.88-10.45,5.81-18.43,5.81-3.99,0-7.88-.51-11.67-1.52-3.79-1.01-7.36-2.55-10.71-4.61Z"/><path class="cls-1" d="M256.84,823.98h-11.62v-69.17h11.62v69.17Z"/><path class="cls-1" d="M307.41,825.14c-9.87,0-17.83-3.22-23.88-9.67-6.05-6.45-9.07-14.85-9.07-25.2,0-11.03,3.08-19.89,9.24-26.58,6.16-6.69,14.43-10.03,24.82-10.03,9.71,0,17.54,3.22,23.49,9.67,5.95,6.45,8.92,14.91,8.92,25.4,0,11.09-3.06,19.94-9.19,26.53-6.13,6.59-14.24,9.89-24.33,9.89Zm.14-10.03c6.56,0,11.75-2.23,15.58-6.71,3.83-4.47,5.74-10.71,5.74-18.71s-1.86-14.62-5.57-19.15c-3.71-4.53-8.8-6.8-15.27-6.8s-11.67,2.36-15.6,7.09c-3.94,4.73-5.91,10.95-5.91,18.67s1.94,14,5.81,18.64,8.95,6.97,15.22,6.97Z"/><path class="cls-1" d="M365.46,797.79v26.19h-6.46v-69.17h17.85c7.27,0,12.85,1.76,16.76,5.28,3.91,3.52,5.86,8.56,5.86,15.12s-2.18,12-6.54,16.23c-4.36,4.23-10.35,6.34-17.97,6.34h-9.5Zm0-37.14v31.3h9.17c5.92,0,10.42-1.41,13.5-4.24,3.09-2.83,4.63-6.83,4.63-12.01s-1.42-8.78-4.24-11.29c-2.83-2.51-7.09-3.76-12.78-3.76h-10.27Z"/><path class="cls-1" d="M463.68,823.98h-7.52l-10.51-19.97c-2.12-3.92-4.08-6.52-5.88-7.79-1.8-1.27-4.02-1.87-6.66-1.81h-8.25v29.57h-6.46v-69.17h19.54c5.98,0,10.88,1.59,14.71,4.78,3.83,3.18,5.74,7.73,5.74,13.65,0,4.82-1.31,8.92-3.93,12.3-2.62,3.38-6.31,5.68-11.07,6.9v.19c1.45,.71,2.81,1.74,4.1,3.09,1.29,1.35,2.59,3.22,3.91,5.6l12.3,22.67Zm-38.83-63.33v27.93h11.43c4.57,0,8.27-1.34,11.12-4.03,2.85-2.68,4.27-6.26,4.27-10.73,0-4.12-1.27-7.34-3.81-9.67-2.54-2.33-6.21-3.5-11-3.5h-12.01Z"/><path class="cls-1" d="M507.55,825.14c-9.78,0-17.59-3.24-23.44-9.72-5.85-6.48-8.78-14.9-8.78-25.25,0-11.09,2.99-19.95,8.97-26.58,5.98-6.62,14.15-9.94,24.5-9.94,9.42,0,17.03,3.2,22.84,9.6,5.8,6.4,8.71,14.79,8.71,25.18,0,11.35-2.97,20.31-8.92,26.87-5.95,6.56-13.91,9.84-23.88,9.84Zm-.05-5.84c8.07,0,14.45-2.63,19.12-7.89s7.02-12.61,7.02-22.07-2.28-16.79-6.83-22.02c-4.55-5.23-10.8-7.84-18.74-7.84s-13.91,2.77-18.76,8.3c-4.86,5.53-7.28,12.78-7.28,21.75s2.33,16.21,6.99,21.63c4.66,5.42,10.82,8.13,18.47,8.13Z"/><path class="cls-1" d="M609.25,754.81l-26.24,69.17h-6.22l-25.18-69.17h7.19l19.58,55.28c.35,1,.67,2.03,.94,3.09,.27,1.06,.49,2.14,.65,3.23h.19c.13-.9,.35-1.89,.65-2.97s.68-2.23,1.13-3.45l20.4-55.18h6.9Z"/></g><g><path class="cls-1" d="M91.85,877.86l8.84-23.62h4.41l8.78,23.62h-4.3l-2.03-5.7h-9.47l-1.96,5.7h-4.28Zm7.26-8.93h7.4l-3.28-9.39c-.08-.24-.14-.49-.2-.73-.06-.25-.11-.55-.17-.91h-.1c-.06,.33-.11,.62-.17,.87-.06,.25-.13,.5-.22,.74l-3.26,9.42Z"/><path class="cls-1" d="M122.73,869.61v8.25h-3.92v-23.62h7.33c2.72,0,4.8,.63,6.23,1.9,1.43,1.27,2.15,3.11,2.15,5.53s-.81,4.26-2.42,5.73c-1.61,1.47-3.79,2.21-6.52,2.21h-2.85Zm0-12.15v8.96h2.54c1.69,0,2.97-.39,3.84-1.18,.87-.79,1.3-1.92,1.3-3.4s-.41-2.56-1.24-3.29c-.82-.73-2.06-1.09-3.71-1.09h-2.73Z"/><path class="cls-1" d="M135.26,877.86l8.84-23.62h4.41l8.78,23.62h-4.3l-2.03-5.7h-9.47l-1.96,5.7h-4.28Zm7.26-8.93h7.4l-3.28-9.39c-.08-.24-.14-.49-.2-.73-.06-.25-.11-.55-.17-.91h-.1c-.06,.33-.11,.62-.17,.87-.06,.25-.13,.5-.22,.74l-3.26,9.42Z"/><path class="cls-1" d="M180.08,877.86h-4.51l-3.64-6.31c-.65-1.11-1.24-1.87-1.76-2.28-.53-.41-1.15-.63-1.86-.67h-2.14v9.26h-3.92v-23.62h7.67c2.43,0,4.34,.55,5.73,1.65,1.39,1.1,2.09,2.73,2.09,4.91,0,1.62-.45,3-1.34,4.13s-2.12,1.96-3.66,2.49v.07c.58,.25,1.11,.63,1.6,1.14,.48,.51,.93,1.12,1.35,1.84l4.4,7.39Zm-13.92-20.44v7.99h3.1c1.27,0,2.32-.4,3.14-1.2,.82-.8,1.23-1.82,1.23-3.05s-.37-2.09-1.1-2.75c-.73-.66-1.8-.99-3.2-.99h-3.16Z"/><path class="cls-1" d="M182.27,877.86l8.84-23.62h4.41l8.78,23.62h-4.3l-2.03-5.7h-9.47l-1.96,5.7h-4.28Zm7.26-8.93h7.4l-3.28-9.39c-.08-.24-.14-.49-.2-.73-.06-.25-.11-.55-.17-.91h-.1c-.06,.33-.11,.62-.17,.87-.06,.25-.13,.5-.22,.74l-3.26,9.42Z"/><path class="cls-1" d="M221.97,857.57h-6.77v20.29h-3.94v-20.29h-6.75v-3.33h17.46v3.33Z"/><path class="cls-1" d="M235.48,878.26c-3.37,0-6.09-1.1-8.15-3.3-2.06-2.2-3.1-5.07-3.1-8.6,0-3.77,1.05-6.79,3.15-9.08,2.1-2.28,4.93-3.43,8.47-3.43,3.32,0,5.99,1.1,8.02,3.3s3.05,5.09,3.05,8.67c0,3.79-1.05,6.81-3.14,9.06-2.09,2.25-4.86,3.38-8.31,3.38Zm.05-3.43c2.24,0,4.01-.76,5.32-2.29s1.96-3.66,1.96-6.39-.63-4.99-1.9-6.54-3.01-2.32-5.21-2.32-3.98,.81-5.33,2.42c-1.35,1.61-2.02,3.74-2.02,6.37s.66,4.78,1.98,6.37c1.32,1.59,3.06,2.38,5.2,2.38Z"/><path class="cls-1" d="M250.94,876.16l1.75-3.01c1.06,.66,2.06,1.12,2.98,1.39,.92,.27,1.95,.4,3.1,.4,1.36,0,2.43-.29,3.22-.88,.79-.59,1.18-1.43,1.18-2.53,0-1-.33-1.79-.98-2.36s-1.76-1.11-3.32-1.59c-2.4-.71-4.17-1.6-5.3-2.65-1.13-1.05-1.7-2.48-1.7-4.28,0-1.95,.73-3.58,2.19-4.87,1.46-1.29,3.44-1.94,5.95-1.94,1.1,0,2.18,.12,3.24,.36,1.06,.24,2.12,.62,3.16,1.12l-1.47,3.13c-.91-.47-1.78-.81-2.61-1-.83-.2-1.67-.3-2.53-.3-1.25,0-2.24,.27-2.96,.82-.72,.55-1.08,1.32-1.08,2.32,0,.89,.33,1.59,.99,2.1,.66,.51,1.79,1.01,3.39,1.51,2.46,.74,4.23,1.65,5.31,2.75s1.62,2.61,1.62,4.53c0,2.06-.74,3.76-2.21,5.08-1.47,1.32-3.57,1.98-6.29,1.98-1.36,0-2.69-.17-3.99-.52-1.3-.35-2.51-.87-3.66-1.57Z"/><path class="cls-1" d="M287.86,869.61v8.25h-3.92v-23.62h7.33c2.72,0,4.8,.63,6.23,1.9,1.43,1.27,2.15,3.11,2.15,5.53s-.81,4.26-2.42,5.73c-1.61,1.47-3.79,2.21-6.52,2.21h-2.85Zm0-12.15v8.96h2.54c1.69,0,2.97-.39,3.84-1.18,.87-.79,1.3-1.92,1.3-3.4s-.41-2.56-1.24-3.29c-.82-.73-2.06-1.09-3.71-1.09h-2.73Z"/><path class="cls-1" d="M300.38,877.86l8.84-23.62h4.41l8.78,23.62h-4.3l-2.03-5.7h-9.47l-1.96,5.7h-4.28Zm7.26-8.93h7.4l-3.28-9.39c-.08-.24-.14-.49-.2-.73-.06-.25-.11-.55-.17-.91h-.1c-.06,.33-.11,.62-.17,.87-.06,.25-.13,.5-.22,.74l-3.26,9.42Z"/><path class="cls-1" d="M345.2,877.86h-4.51l-3.64-6.31c-.65-1.11-1.24-1.87-1.76-2.28-.53-.41-1.15-.63-1.86-.67h-2.14v9.26h-3.92v-23.62h7.67c2.43,0,4.34,.55,5.73,1.65,1.39,1.1,2.09,2.73,2.09,4.91,0,1.62-.45,3-1.34,4.13s-2.12,1.96-3.66,2.49v.07c.58,.25,1.11,.63,1.6,1.14,.48,.51,.93,1.12,1.35,1.84l4.4,7.39Zm-13.92-20.44v7.99h3.1c1.27,0,2.32-.4,3.14-1.2,.82-.8,1.23-1.82,1.23-3.05s-.37-2.09-1.1-2.75c-.73-.66-1.8-.99-3.2-.99h-3.16Z"/><path class="cls-1" d="M347.4,877.86l8.84-23.62h4.41l8.78,23.62h-4.3l-2.03-5.7h-9.47l-1.96,5.7h-4.28Zm7.26-8.93h7.39l-3.28-9.39c-.08-.24-.14-.49-.2-.73-.06-.25-.11-.55-.17-.91h-.1c-.05,.33-.11,.62-.17,.87s-.13,.5-.22,.74l-3.26,9.42Z"/><path class="cls-1" d="M398.07,857.57h-8.83v7.1h8.14v3.31h-8.14v9.88h-3.92v-23.62h12.75v3.33Z"/><path class="cls-1" d="M407.95,877.86h-3.97v-23.62h3.97v23.62Z"/><path class="cls-1" d="M413.49,876.16l1.75-3.01c1.06,.66,2.06,1.12,2.98,1.39,.92,.27,1.95,.4,3.1,.4,1.36,0,2.43-.29,3.22-.88,.79-.59,1.18-1.43,1.18-2.53,0-1-.33-1.79-.98-2.36-.65-.58-1.76-1.11-3.32-1.59-2.4-.71-4.17-1.6-5.3-2.65-1.13-1.05-1.7-2.48-1.7-4.28,0-1.95,.73-3.58,2.19-4.87,1.46-1.29,3.44-1.94,5.95-1.94,1.1,0,2.18,.12,3.24,.36,1.07,.24,2.12,.62,3.16,1.12l-1.47,3.13c-.91-.47-1.78-.81-2.61-1-.83-.2-1.67-.3-2.53-.3-1.25,0-2.24,.27-2.96,.82-.72,.55-1.08,1.32-1.08,2.32,0,.89,.33,1.59,.99,2.1,.66,.51,1.79,1.01,3.39,1.51,2.46,.74,4.23,1.65,5.31,2.75,1.08,1.1,1.62,2.61,1.62,4.53,0,2.06-.74,3.76-2.21,5.08-1.47,1.32-3.57,1.98-6.29,1.98-1.36,0-2.69-.17-3.99-.52-1.29-.35-2.51-.87-3.66-1.57Z"/><path class="cls-1" d="M439.51,877.86h-3.97v-23.62h3.97v23.62Z"/><path class="cls-1" d="M456.78,878.26c-3.37,0-6.09-1.1-8.15-3.3-2.06-2.2-3.1-5.07-3.1-8.6,0-3.77,1.05-6.79,3.15-9.08,2.1-2.28,4.93-3.43,8.47-3.43,3.32,0,5.99,1.1,8.02,3.3s3.05,5.09,3.05,8.67c0,3.79-1.05,6.81-3.14,9.06-2.09,2.25-4.86,3.38-8.31,3.38Zm.05-3.43c2.24,0,4.01-.76,5.32-2.29s1.96-3.66,1.96-6.39-.63-4.99-1.9-6.54-3.01-2.32-5.21-2.32-3.98,.81-5.33,2.42c-1.35,1.61-2.02,3.74-2.02,6.37s.66,4.78,1.98,6.37,3.05,2.38,5.2,2.38Z"/><path class="cls-1" d="M487.9,857.57h-6.77v20.29h-3.94v-20.29h-6.75v-3.33h17.46v3.33Z"/><path class="cls-1" d="M506.33,877.86h-13.26v-23.62h12.73v3.33h-8.81v6.69h8.17v3.31h-8.17v6.97h9.34v3.33Z"/><path class="cls-1" d="M530.07,877.86h-4.51l-3.64-6.31c-.65-1.11-1.23-1.87-1.76-2.28s-1.15-.63-1.86-.67h-2.14v9.26h-3.92v-23.62h7.67c2.43,0,4.34,.55,5.73,1.65,1.39,1.1,2.09,2.73,2.09,4.91,0,1.62-.45,3-1.34,4.13s-2.12,1.96-3.66,2.49v.07c.58,.25,1.11,.63,1.6,1.14,.48,.51,.93,1.12,1.35,1.84l4.4,7.39Zm-13.92-20.44v7.99h3.1c1.27,0,2.32-.4,3.14-1.2,.82-.8,1.23-1.82,1.23-3.05s-.36-2.09-1.09-2.75c-.73-.66-1.8-.99-3.2-.99h-3.16Z"/><path class="cls-1" d="M532.27,877.86l8.84-23.62h4.41l8.78,23.62h-4.3l-2.03-5.7h-9.47l-1.96,5.7h-4.28Zm7.26-8.93h7.39l-3.28-9.39c-.08-.24-.14-.49-.2-.73-.06-.25-.11-.55-.17-.91h-.1c-.05,.33-.11,.62-.17,.87s-.13,.5-.22,.74l-3.26,9.42Z"/><path class="cls-1" d="M563.16,869.61v8.25h-3.92v-23.62h7.33c2.72,0,4.8,.63,6.23,1.9,1.43,1.27,2.15,3.11,2.15,5.53s-.81,4.26-2.42,5.73-3.79,2.21-6.52,2.21h-2.85Zm0-12.15v8.96h2.54c1.69,0,2.97-.39,3.84-1.18,.87-.79,1.3-1.92,1.3-3.4s-.41-2.56-1.24-3.29c-.82-.73-2.06-1.09-3.71-1.09h-2.73Z"/><path class="cls-1" d="M584.62,877.86h-3.97v-23.62h3.97v23.62Z"/><path class="cls-1" d="M589.52,877.86l8.84-23.62h4.41l8.78,23.62h-4.3l-2.03-5.7h-9.47l-1.96,5.7h-4.28Zm7.26-8.93h7.39l-3.28-9.39c-.08-.24-.14-.49-.2-.73-.06-.25-.11-.55-.17-.91h-.1c-.05,.33-.11,.62-.17,.87s-.13,.5-.22,.74l-3.26,9.42Z"/></g></g><circle class="cls-2" cx="352.57" cy="352.57" r="352.57"/><g><path class="cls-1" d="M156.29,581.84c-3.59,0-7.1-1.34-9.9-3.91-30.96-28.34-55.36-62.04-72.52-100.17-17.76-39.47-26.76-81.59-26.76-125.21,0-81.06,31.42-157.42,88.47-215,57.01-57.54,133-89.66,213.95-90.45,62.61-.61,122.97,17.7,174.66,52.96,2.28,1.56,2.87,4.67,1.31,6.95-1.56,2.28-4.67,2.87-6.95,1.31-49.99-34.1-108.43-51.84-168.93-51.22C188.33,58.67,57.11,191.21,57.11,352.55c0,82.68,35,162.14,96.03,218,2.13,1.95,4.46,1.14,5.12,.85,.66-.29,2.79-1.45,2.79-4.29V223.9c0-56.48,45.96-102.43,102.44-102.43h74.21c2.76,0,5,2.24,5,5s-2.24,5-5,5h-74.21c-50.97,0-92.43,41.47-92.43,92.43v343.22c0,5.91-3.36,11.06-8.77,13.44-1.95,.86-3.99,1.28-6,1.28Z"/><path class="cls-1" d="M648.79,307.09c-2.39,0-4.51-1.72-4.92-4.16-6.95-40.86-22.19-79.14-45.31-113.79-1.53-2.3-.91-5.4,1.38-6.93s5.4-.91,6.93,1.38c23.9,35.83,39.66,75.41,46.85,117.67,.46,2.72-1.37,5.3-4.09,5.77-.28,.05-.57,.07-.84,.07Z"/><path class="cls-1" d="M375.4,657.13c-3.66,0-7.24-1.39-9.95-3.9-3-2.78-4.73-6.72-4.73-10.81v-166.55s0-.05,0-.08,0-.05,0-.08v-186.29c0-2.76,2.24-5,5.01-5h80.16c54.14,0,98.19,44.05,98.19,98.19s-44.05,98.19-98.19,98.19h-75.17v161.63c0,1.33,.53,2.56,1.51,3.47,.96,.89,2.21,1.32,3.5,1.22,153.13-11.88,272.73-141.65,272.29-295.44,0-2.76,2.22-5.01,4.99-5.01h.01c2.75,0,4.99,2.23,5,4.99,.22,77.6-28.69,151.66-81.4,208.52-52.43,56.55-123.5,90.97-200.11,96.92-.37,.03-.75,.04-1.12,.04Zm-4.67-186.34h75.17c48.63,0,88.19-39.56,88.19-88.19s-39.56-88.19-88.19-88.19h-75.16v176.37Z"/><path class="cls-1" d="M324.5,295.74H166.05c-2.76,0-5-2.24-5-5s2.24-5,5-5h158.45c2.76,0,5,2.24,5,5s-2.24,5-5,5Z"/></g></svg>