<?xml version="1.0" encoding="UTF-8"?><svg id="Capa_2" xmlns="http://www.w3.org/2000/svg" viewBox="0 0 993.24 993.24"><defs><style>.cls-1{fill:#cadcd0;}.cls-2{fill:none;stroke:#282828;stroke-linecap:round;stroke-linejoin:round;stroke-width:10px;}</style></defs><circle class="cls-1" cx="496.62" cy="496.62" r="496.62"/><g><path class="cls-2" d="M734.39,146.76c-68.96-47.04-152.41-74.25-241.98-73.38-231.8,2.26-419.01,190.87-419.01,423.21,0,123.64,53.02,234.89,137.55,312.27,8.79,8.05,22.95,1.88,22.95-10.04V315.37c0-75.8,61.45-137.24,137.25-137.24h104.53"/><path class="cls-2" d="M913.87,425.52c-10.11-59.45-32.68-114.72-64.9-163.01"/><path class="cls-2" d="M515.16,670.19h112.92c72.49,0,131.26-58.77,131.26-131.26h0c0-72.49-58.77-131.26-131.26-131.26h-112.91s-.02,497.23-.02,497.23c0,7.94,6.74,14.25,14.66,13.63,218.63-16.96,390.67-200.05,390.03-423.19"/><line class="cls-2" x1="233.9" y1="409.53" x2="457.08" y2="409.53"/></g></svg>